<?xml version="1.0" standalone="no"?>
<!DOCTYPE svg PUBLIC "-//W3C//DTD SVG 20010904//EN"
 "http://www.w3.org/TR/2001/REC-SVG-20010904/DTD/svg10.dtd">
<svg version="1.0" xmlns="http://www.w3.org/2000/svg"
 width="512.000000pt" height="512.000000pt" viewBox="0 0 512.000000 512.000000"
 preserveAspectRatio="xMidYMid meet">

<g transform="translate(0.000000,512.000000) scale(0.100000,-0.100000)"
fill="#000000" stroke="none">
<path d="M4159 3800 c46 -72 101 -198 122 -275 30 -112 30 -307 0 -420 -25
-98 -107 -264 -159 -324 l-39 -45 25 -75 c36 -112 43 -305 13 -421 -59 -238
-212 -430 -426 -535 -172 -86 -75 -79 -1290 -83 -961 -2 -1089 -1 -1160 13
-102 21 -204 64 -291 122 -54 36 132 -154 830 -848 l899 -894 51 -3 c130 -8
489 65 702 143 146 53 403 183 532 269 526 350 914 892 1067 1490 70 278 96
541 78 802 l-11 157 -482 481 c-266 264 -473 465 -461 446z"/>
</g>
</svg>
